<svg xmlns="http://www.w3.org/2000/svg" xmlns:xlink="http://www.w3.org/1999/xlink" width="100" zoomAndPan="magnify" viewBox="0 0 75 30.000001" height="40" preserveAspectRatio="xMidYMid meet" version="1.0"><path fill="#ffffff" d="M 45.976562 14.839844 C 45.558594 15.261719 45.195312 15.628906 44.835938 16 C 43.925781 16.9375 42.992188 17.855469 42.113281 18.820312 C 41.054688 19.984375 40.542969 21.363281 40.878906 22.929688 C 41.195312 24.402344 42.113281 25.441406 43.511719 26.019531 C 45.6875 26.914062 48.035156 25.457031 48.527344 23.46875 C 48.902344 21.949219 48.382812 20.515625 46.824219 19.941406 C 45.871094 19.585938 44.726562 20.113281 44.40625 21.03125 C 44.300781 21.335938 44.285156 21.648438 44.492188 21.925781 C 44.824219 21.730469 45.113281 21.5 45.441406 21.375 C 46.113281 21.113281 46.726562 21.496094 46.863281 22.203125 C 47.050781 23.1875 46.398438 23.921875 45.308594 24.058594 C 43.816406 24.246094 42.605469 22.84375 42.683594 21.351562 C 42.835938 18.378906 45.65625 17.316406 47.820312 18.183594 C 49.371094 18.800781 50.316406 19.984375 50.722656 21.601562 C 51.296875 23.910156 50.050781 26.335938 48.160156 27.476562 C 47.273438 28.011719 46.324219 28.335938 45.300781 28.515625 C 42.394531 29.019531 39.238281 27.5 37.789062 24.851562 C 37.175781 23.726562 36.78125 22.53125 36.746094 21.253906 C 36.710938 19.707031 37.246094 18.320312 38.113281 17.058594 C 38.410156 16.628906 38.757812 16.230469 39.054688 15.804688 C 39.441406 15.246094 39.917969 15.09375 40.585938 15.273438 C 41.644531 15.5625 42.726562 15.5 43.796875 15.292969 C 44.453125 15.164062 45.09375 14.964844 45.742188 14.800781 C 45.78125 14.792969 45.828125 14.8125 45.976562 14.839844 Z M 45.976562 14.839844 " fill-opacity="1" fill-rule="nonzero"/><path fill="#ffffff" d="M 36.210938 9.554688 C 36.789062 9.683594 37.296875 9.796875 37.800781 9.90625 C 39.082031 10.179688 40.355469 10.484375 41.640625 10.714844 C 43.191406 10.992188 44.636719 10.695312 45.792969 9.578125 C 46.875 8.53125 47.273438 7.203125 47.019531 5.714844 C 46.628906 3.402344 44.148438 2.1875 42.199219 2.824219 C 40.703125 3.3125 39.761719 4.511719 40.097656 6.136719 C 40.304688 7.128906 41.355469 7.816406 42.308594 7.601562 C 42.625 7.53125 42.894531 7.375 43.023438 7.054688 C 42.679688 6.878906 42.332031 6.757812 42.050781 6.542969 C 41.476562 6.117188 41.472656 5.394531 42 4.90625 C 42.738281 4.226562 43.710938 4.386719 44.402344 5.234375 C 45.351562 6.398438 44.800781 8.164062 43.492188 8.890625 C 40.882812 10.335938 38.484375 8.511719 38.074219 6.222656 C 37.78125 4.585938 38.28125 3.15625 39.445312 1.960938 C 41.105469 0.25 43.824219 0.015625 45.796875 1.011719 C 46.722656 1.480469 47.5 2.109375 48.195312 2.882812 C 50.164062 5.074219 50.546875 8.546875 49.058594 11.175781 C 48.429688 12.289062 47.625 13.257812 46.554688 13.960938 C 45.261719 14.8125 43.796875 15.097656 42.261719 15.03125 C 41.738281 15.007812 41.21875 14.925781 40.695312 14.898438 C 40.019531 14.867188 39.636719 14.546875 39.4375 13.886719 C 39.121094 12.835938 38.492188 11.953125 37.75 11.160156 C 37.292969 10.671875 36.785156 10.234375 36.300781 9.773438 C 36.273438 9.746094 36.265625 9.695312 36.210938 9.554688 Z M 36.210938 9.554688 " fill-opacity="1" fill-rule="nonzero"/><path fill="#ffffff" d="M 36.257812 20.636719 C 36.101562 20.0625 35.96875 19.5625 35.828125 19.066406 C 35.476562 17.8125 35.15625 16.546875 34.761719 15.300781 C 34.285156 13.804688 33.351562 12.664062 31.824219 12.164062 C 30.390625 11.695312 29.027344 11.960938 27.824219 12.875 C 25.949219 14.296875 26.027344 17.050781 27.5 18.476562 C 28.628906 19.570312 30.128906 19.84375 31.414062 18.792969 C 32.199219 18.152344 32.320312 16.898438 31.6875 16.160156 C 31.476562 15.914062 31.214844 15.746094 30.871094 15.785156 C 30.875 16.167969 30.925781 16.53125 30.871094 16.878906 C 30.757812 17.585938 30.117188 17.925781 29.4375 17.683594 C 28.488281 17.347656 28.179688 16.414062 28.613281 15.410156 C 29.203125 14.03125 31.027344 13.695312 32.28125 14.515625 C 34.777344 16.144531 34.273438 19.113281 32.433594 20.539062 C 31.117188 21.558594 29.617188 21.777344 28.011719 21.3125 C 25.71875 20.640625 24.25 18.347656 24.214844 16.140625 C 24.199219 15.109375 24.398438 14.128906 24.761719 13.15625 C 25.789062 10.398438 28.699219 8.445312 31.722656 8.535156 C 33.003906 8.574219 34.238281 8.835938 35.359375 9.453125 C 36.71875 10.199219 37.648438 11.359375 38.304688 12.746094 C 38.527344 13.21875 38.695312 13.714844 38.917969 14.1875 C 39.203125 14.804688 39.09375 15.289062 38.601562 15.773438 C 37.820312 16.539062 37.324219 17.507812 36.96875 18.53125 C 36.746094 19.160156 36.59375 19.8125 36.410156 20.453125 C 36.398438 20.492188 36.355469 20.523438 36.257812 20.636719 Z M 36.257812 20.636719 " fill-opacity="1" fill-rule="nonzero"/></svg>